<svg width="32" height="32" viewBox="0 0 32 32" fill="none" xmlns="http://www.w3.org/2000/svg">
<path fill-rule="evenodd" clip-rule="evenodd" d="M16 10C12.6863 10 10 12.6863 10 16C10 19.3137 12.6863 22 16 22C19.3137 22 22 19.3137 22 16C22 12.6863 19.3137 10 16 10ZM8 16C8 11.5817 11.5817 8 16 8C20.4183 8 24 11.5817 24 16C24 20.4183 20.4183 24 16 24C11.5817 24 8 20.4183 8 16Z" fill="#FEF8EC"/>
<path fill-rule="evenodd" clip-rule="evenodd" d="M13.5 4C12.8705 4 12.2777 4.29639 11.9 4.8L10.7 6.4C9.94458 7.40722 8.75903 8 7.5 8H5C3.34315 8 2 9.34315 2 11V23C2 24.6569 3.34315 26 5 26H27C28.6569 26 30 24.6569 30 23V11C30 9.34315 28.6569 8 27 8H24.5C23.241 8 22.0554 7.40722 21.3 6.4L20.1 4.8C19.7223 4.29639 19.1295 4 18.5 4H13.5ZM10.3 3.6C11.0554 2.59278 12.241 2 13.5 2H18.5C19.759 2 20.9446 2.59278 21.7 3.6L22.9 5.2C23.2777 5.70361 23.8705 6 24.5 6H27C29.7614 6 32 8.23858 32 11V23C32 25.7614 29.7614 28 27 28H5C2.23858 28 0 25.7614 0 23V11C0 8.23858 2.23858 6 5 6H7.5C8.12951 6 8.72229 5.70361 9.1 5.2L10.3 3.6Z" fill="#FEF8EC"/>
</svg>
