<svg width="150" height="150" viewBox="0 0 150 150" fill="none" xmlns="http://www.w3.org/2000/svg">
<circle cx="75" cy="75" r="75" fill="#2E282A"/>
<path fill-rule="evenodd" clip-rule="evenodd" d="M57.6479 70.7858C62.014 75.2304 68.8517 75.8332 74.9678 75.8332L74.9723 75.8292C81.0839 75.8292 87.9171 75.2304 92.2922 70.7858C95.9636 67.0404 97.1544 61.2697 95.9276 53.136C94.2181 41.7794 86.3836 35 74.9723 35C63.5611 35 55.731 41.7794 54.0171 53.136C52.7903 61.2697 53.9765 67.0485 57.6479 70.7858ZM48.5869 115.231H101.349V115.223C104.34 115.223 106.978 114.098 108.782 112.068C110.686 109.926 111.38 106.969 110.641 104.164C106.87 89.974 92.2023 80.0641 74.9636 80.0641C57.7249 80.0641 43.0572 89.978 39.2955 104.164C38.5468 106.969 39.2414 109.926 41.1448 112.072C42.9489 114.106 45.5965 115.231 48.5869 115.231Z" fill="#FA7921"/>
</svg>
